# xmcd
#
# Track frame offsets: 
#        150
#        21417
#        41904
#        58305
#        77391
#        93627
#        110568
#        126936
#        150672
#        162583
#        193350
#        204912
#        223917
#        236733
#        246780
#        256295
#        276297
#
# Disc length: 3852 seconds
#
# Revision: 2
# Processed by: cddbd v1.5.2PL0 Copyright (c) Steve Scherf et al.
# Submitted via: ExactAudioCopy v0.99pb3
#
DISCID=050f0a11
DTITLE=Various Artist - Nothing Left To Lose
DYEAR=2002
DGENRE=Country
TTITLE0=Handsome Family - Sunday Mornin' Comin' Down
TTITLE1=Souled American - Please Don't Tell Me How The Story Ends
TTITLE2=Califone - Border Lord
TTITLE3=Diana Darby - Jesus Was A Capricorn
TTITLE4=Rebecca Gates With Califone - Nobody Wins
TTITLE5=Calexico - Casey's Last Ride
TTITLE6=Court And Spark - For The Good Times
TTITLE7=Zmrzlina With Milk Chopper - Me and Bobby McGee
TTITLE8=Radar Brothers - Help Me Make It Through The Night
TTITLE9=Deanna Varagona - Burden Of Freedom
TTITLE10=Creeper Lagoon - Why Me
TTITLE11=Granfaloon Bus - Kiss The World Goodbye
TTITLE12=Virgil Shaw With The Killer Views Band - Just The Other Side 
TTITLE12=Of Nowhere
TTITLE13=Richard Buckner - Lovin' Her Was Easier (Than Anything I'll E
TTITLE13=ver Do Again)
TTITLE14=Crooked Fades -  Shipwrecked In The Eighties
TTITLE15=Howe Gelb - The Pilgrim (Chapter 33)
TTITLE16=Grandaddy - Best Of All Possible Worlds
EXTD=a tribute to Kris Kristofferson
EXTT0=
EXTT1=
EXTT2=
EXTT3=
EXTT4=
EXTT5=
EXTT6=
EXTT7=
EXTT8=
EXTT9=
EXTT10=
EXTT11=
EXTT12=
EXTT13=
EXTT14=
EXTT15=
EXTT16=
PLAYORDER=
